<?xml version="1.0" encoding="UTF-8" standalone="no"?>
<!-- Created with Inkscape (http://www.inkscape.org/) -->

<svg
   xmlns:dc="http://purl.org/dc/elements/1.1/"
   xmlns:cc="http://creativecommons.org/ns#"
   xmlns:rdf="http://www.w3.org/1999/02/22-rdf-syntax-ns#"
   xmlns:svg="http://www.w3.org/2000/svg"
   xmlns="http://www.w3.org/2000/svg"
   xmlns:sodipodi="http://sodipodi.sourceforge.net/DTD/sodipodi-0.dtd"
   xmlns:inkscape="http://www.inkscape.org/namespaces/inkscape"
   width="32"
   height="32"
   id="svg2"
   version="1.1"
   inkscape:version="0.48.1 r9760"
   sodipodi:docname="ch3_picot.svg">
  <defs
     id="defs4" />
  <sodipodi:namedview
     id="base"
     pagecolor="#ffffff"
     bordercolor="#666666"
     borderopacity="1.0"
     inkscape:pageopacity="0.0"
     inkscape:pageshadow="2"
     inkscape:zoom="8"
     inkscape:cx="36.945478"
     inkscape:cy="13.183914"
     inkscape:document-units="px"
     inkscape:current-layer="layer1"
     showgrid="false"
     inkscape:window-width="1280"
     inkscape:window-height="929"
     inkscape:window-x="-4"
     inkscape:window-y="-3"
     inkscape:window-maximized="1" />
  <metadata
     id="metadata7">
    <rdf:RDF>
      <cc:Work
         rdf:about="">
        <dc:format>image/svg+xml</dc:format>
        <dc:type
           rdf:resource="http://purl.org/dc/dcmitype/StillImage" />
        <dc:title></dc:title>
      </cc:Work>
    </rdf:RDF>
  </metadata>
  <g
     inkscape:label="Layer 1"
     inkscape:groupmode="layer"
     id="layer1"
     transform="translate(0,-1020.3622)">
    <path
       sodipodi:type="arc"
       style="fill:none;stroke:#000000;stroke-width:4;stroke-linecap:round;stroke-linejoin:round;stroke-miterlimit:4;stroke-opacity:1;stroke-dasharray:none"
       id="path3755"
       sodipodi:cx="20.8125"
       sodipodi:cy="27.875"
       sodipodi:rx="14.8125"
       sodipodi:ry="21.375"
       d="M 35.625,27.875 C 35.625,39.680087 28.993218,49.25 20.8125,49.25 12.631782,49.25 6,39.680087 6,27.875 6,16.069913 12.631782,6.5 20.8125,6.5 c 8.067716,0 14.651753,9.316837 14.809662,20.956628"
       transform="matrix(0.28747671,0,0,0.49717881,-0.48932835,1025.7164)"
       sodipodi:start="0"
       sodipodi:end="6.2636111"
       sodipodi:open="true" />
    <path
       sodipodi:type="arc"
       style="fill:none;stroke:#000000;stroke-width:4;stroke-linecap:round;stroke-linejoin:round;stroke-miterlimit:4;stroke-opacity:1;stroke-dasharray:none"
       id="path3755-6"
       sodipodi:cx="20.8125"
       sodipodi:cy="27.875"
       sodipodi:rx="14.8125"
       sodipodi:ry="21.375"
       d="M 35.625,27.875 C 35.625,39.680087 28.993218,49.25 20.8125,49.25 12.631782,49.25 6,39.680087 6,27.875 6,16.069913 12.631782,6.5 20.8125,6.5 c 8.067716,0 14.651753,9.316837 14.809662,20.956628"
       transform="matrix(0.28747671,0,0,0.49717881,20.546395,1025.7164)"
       sodipodi:start="0"
       sodipodi:end="6.2636111"
       sodipodi:open="true" />
    <path
       sodipodi:type="arc"
       style="fill:none;stroke:#000000;stroke-width:4;stroke-linecap:round;stroke-linejoin:round;stroke-miterlimit:4;stroke-opacity:1;stroke-dasharray:none"
       id="path3755-1"
       sodipodi:cx="20.8125"
       sodipodi:cy="27.875"
       sodipodi:rx="14.8125"
       sodipodi:ry="21.375"
       d="M 35.625,27.875 C 35.625,39.680087 28.993218,49.25 20.8125,49.25 12.631782,49.25 6,39.680087 6,27.875 6,16.069913 12.631782,6.5 20.8125,6.5 c 8.067716,0 14.651753,9.316837 14.809662,20.956628"
       transform="matrix(0,0.28747671,-0.49717881,0,29.870502,1020.9141)"
       sodipodi:start="0"
       sodipodi:end="6.2636111"
       sodipodi:open="true" />
  </g>
</svg>
