<?xml version="1.0" encoding="UTF-8" standalone="no"?>
<!-- Created with Inkscape (http://www.inkscape.org/) -->

<svg
   xmlns:dc="http://purl.org/dc/elements/1.1/"
   xmlns:cc="http://creativecommons.org/ns#"
   xmlns:rdf="http://www.w3.org/1999/02/22-rdf-syntax-ns#"
   xmlns:svg="http://www.w3.org/2000/svg"
   xmlns="http://www.w3.org/2000/svg"
   xmlns:sodipodi="http://sodipodi.sourceforge.net/DTD/sodipodi-0.dtd"
   xmlns:inkscape="http://www.inkscape.org/namespaces/inkscape"
   width="32"
   height="32"
   id="svg2"
   version="1.1"
   inkscape:version="0.48.1 r9760"
   sodipodi:docname="st3.svg">
  <defs
     id="defs4" />
  <sodipodi:namedview
     id="base"
     pagecolor="#ffffff"
     bordercolor="#666666"
     borderopacity="1.0"
     inkscape:pageopacity="0.0"
     inkscape:pageshadow="2"
     inkscape:zoom="11.313708"
     inkscape:cx="10.556056"
     inkscape:cy="10.983884"
     inkscape:document-units="px"
     inkscape:current-layer="g3005"
     showgrid="false"
     inkscape:window-width="1280"
     inkscape:window-height="929"
     inkscape:window-x="-4"
     inkscape:window-y="-3"
     inkscape:window-maximized="1" />
  <metadata
     id="metadata7">
    <rdf:RDF>
      <cc:Work
         rdf:about="">
        <dc:format>image/svg+xml</dc:format>
        <dc:type
           rdf:resource="http://purl.org/dc/dcmitype/StillImage" />
        <dc:title />
      </cc:Work>
    </rdf:RDF>
  </metadata>
  <g
     inkscape:label="Layer 1"
     inkscape:groupmode="layer"
     id="layer1"
     transform="translate(0,-1020.3622)">
    <g
       id="g3005"
       transform="matrix(0.84064382,0.42065983,-0.42065983,0.84064382,438.55678,157.24942)">
      <path
         sodipodi:open="true"
         sodipodi:end="6.2636111"
         sodipodi:start="0"
         transform="matrix(0.28059144,-0.06254041,0.10816099,0.48527103,-2.1110168,1027.8499)"
         d="M 35.625,27.875 C 35.625,39.680087 28.993218,49.25 20.8125,49.25 12.631782,49.25 6,39.680087 6,27.875 6,16.069913 12.631782,6.5 20.8125,6.5 c 8.067716,0 14.651753,9.316837 14.809662,20.956628"
         sodipodi:ry="21.375"
         sodipodi:rx="14.8125"
         sodipodi:cy="27.875"
         sodipodi:cx="20.8125"
         id="path3755"
         style="fill:none;stroke:#000000;stroke-width:4.25458567;stroke-linecap:round;stroke-linejoin:round;stroke-miterlimit:4;stroke-opacity:1;stroke-dasharray:none"
         sodipodi:type="arc" />
      <path
         sodipodi:open="true"
         sodipodi:end="6.2636111"
         sodipodi:start="0"
         transform="matrix(0.28747671,0,0,0.49717881,20.546395,1025.7164)"
         d="M 35.625,27.875 C 35.625,39.680087 28.993218,49.25 20.8125,49.25 12.631782,49.25 6,39.680087 6,27.875 6,16.069913 12.631782,6.5 20.8125,6.5 c 8.067716,0 14.651753,9.316837 14.809662,20.956628"
         sodipodi:ry="21.375"
         sodipodi:rx="14.8125"
         sodipodi:cy="27.875"
         sodipodi:cx="20.8125"
         id="path3755-6"
         style="fill:none;stroke:#000000;stroke-width:4.25458568;stroke-linecap:round;stroke-linejoin:round;stroke-miterlimit:4;stroke-opacity:1;stroke-dasharray:none"
         sodipodi:type="arc" />
      <path
         sodipodi:open="true"
         sodipodi:end="6.2636111"
         sodipodi:start="0"
         transform="matrix(0,0.28747671,-0.49717881,0,29.870502,1020.9141)"
         d="M 35.625,27.875 C 35.625,39.680087 28.993218,49.25 20.8125,49.25 12.631782,49.25 6,39.680087 6,27.875 6,16.069913 12.631782,6.5 20.8125,6.5 c 8.067716,0 14.651753,9.316837 14.809662,20.956628"
         sodipodi:ry="21.375"
         sodipodi:rx="14.8125"
         sodipodi:cy="27.875"
         sodipodi:cx="20.8125"
         id="path3755-1"
         style="fill:none;stroke:#000000;stroke-width:4.25458568;stroke-linecap:round;stroke-linejoin:round;stroke-miterlimit:4;stroke-opacity:1;stroke-dasharray:none"
         sodipodi:type="arc" />
      <path
         sodipodi:open="true"
         sodipodi:end="6.2636111"
         sodipodi:start="0"
         transform="matrix(0.51420499,-0.0076627,0.08207963,0.38151228,-4.5144941,1032.9093)"
         d="m 38.875,45.25 c 0,3.796958 -3.078042,6.875 -6.875,6.875 -3.796958,0 -6.875,-3.078042 -6.875,-6.875 0,-3.796958 3.078042,-6.875 6.875,-6.875 3.74451,0 6.800392,2.996644 6.873683,6.740436"
         sodipodi:ry="6.875"
         sodipodi:rx="6.875"
         sodipodi:cy="45.25"
         sodipodi:cx="32"
         id="path3782"
         style="fill:#000000;fill-opacity:1;stroke:#000000;stroke-width:4;stroke-linecap:round;stroke-linejoin:round;stroke-miterlimit:4;stroke-opacity:1;stroke-dasharray:none"
         sodipodi:type="arc" />
    </g>
  </g>
</svg>
