<?xml version="1.0" encoding="UTF-8" standalone="no"?>
<!-- Created with Inkscape (http://www.inkscape.org/) -->

<svg
   xmlns:dc="http://purl.org/dc/elements/1.1/"
   xmlns:cc="http://creativecommons.org/ns#"
   xmlns:rdf="http://www.w3.org/1999/02/22-rdf-syntax-ns#"
   xmlns:svg="http://www.w3.org/2000/svg"
   xmlns="http://www.w3.org/2000/svg"
   xmlns:sodipodi="http://sodipodi.sourceforge.net/DTD/sodipodi-0.dtd"
   xmlns:inkscape="http://www.inkscape.org/namespaces/inkscape"
   width="32"
   height="32"
   id="svg2"
   version="1.1"
   inkscape:version="0.48.1 r9760"
   sodipodi:docname="st4.svg">
  <defs
     id="defs4" />
  <sodipodi:namedview
     id="base"
     pagecolor="#ffffff"
     bordercolor="#666666"
     borderopacity="1.0"
     inkscape:pageopacity="0.0"
     inkscape:pageshadow="2"
     inkscape:zoom="11.313708"
     inkscape:cx="10.556056"
     inkscape:cy="10.983884"
     inkscape:document-units="px"
     inkscape:current-layer="layer1"
     showgrid="false"
     inkscape:window-width="1280"
     inkscape:window-height="929"
     inkscape:window-x="-4"
     inkscape:window-y="-3"
     inkscape:window-maximized="1" />
  <metadata
     id="metadata7">
    <rdf:RDF>
      <cc:Work
         rdf:about="">
        <dc:format>image/svg+xml</dc:format>
        <dc:type
           rdf:resource="http://purl.org/dc/dcmitype/StillImage" />
        <dc:title></dc:title>
      </cc:Work>
    </rdf:RDF>
  </metadata>
  <g
     inkscape:label="Layer 1"
     inkscape:groupmode="layer"
     id="layer1"
     transform="translate(0,-1020.3622)">
    <g
       id="g4889"
       transform="matrix(0.94628356,0,0,0.95552393,1.5182562,46.456093)">
      <path
         sodipodi:open="true"
         sodipodi:end="6.2636111"
         sodipodi:start="0"
         transform="matrix(0.19739389,0.16742416,-0.28259063,0.34979531,13.174232,1018.2102)"
         d="M 35.625,27.875 C 35.625,39.680087 28.993218,49.25 20.8125,49.25 12.631782,49.25 6,39.680087 6,27.875 6,16.069913 12.631782,6.5 20.8125,6.5 c 8.067716,0 14.651753,9.316837 14.809662,20.956628"
         sodipodi:ry="21.375"
         sodipodi:rx="14.8125"
         sodipodi:cy="27.875"
         sodipodi:cx="20.8125"
         id="path3755"
         style="fill:none;stroke:#000000;stroke-width:4.66142368;stroke-linecap:round;stroke-linejoin:round;stroke-miterlimit:4;stroke-opacity:1;stroke-dasharray:none"
         sodipodi:type="arc" />
      <path
         sodipodi:open="true"
         sodipodi:end="6.2636111"
         sodipodi:start="0"
         transform="matrix(0.1462167,0.21562248,-0.36394322,0.25910589,29.347916,1031.6201)"
         d="M 35.625,27.875 C 35.625,39.680087 28.993218,49.25 20.8125,49.25 12.631782,49.25 6,39.680087 6,27.875 6,16.069913 12.631782,6.5 20.8125,6.5 c 8.067716,0 14.651753,9.316837 14.809662,20.956628"
         sodipodi:ry="21.375"
         sodipodi:rx="14.8125"
         sodipodi:cy="27.875"
         sodipodi:cx="20.8125"
         id="path3755-6"
         style="fill:none;stroke:#000000;stroke-width:4.66142368;stroke-linecap:round;stroke-linejoin:round;stroke-miterlimit:4;stroke-opacity:1;stroke-dasharray:none"
         sodipodi:type="arc" />
      <path
         sodipodi:open="true"
         sodipodi:end="6.2636111"
         sodipodi:start="0"
         transform="matrix(-0.17925037,0.18763097,-0.31669713,-0.31764377,36.084312,1033.7145)"
         d="M 35.625,27.875 C 35.625,39.680087 28.993218,49.25 20.8125,49.25 12.631782,49.25 6,39.680087 6,27.875 6,16.069913 12.631782,6.5 20.8125,6.5 c 8.067716,0 14.651753,9.316837 14.809662,20.956628"
         sodipodi:ry="21.375"
         sodipodi:rx="14.8125"
         sodipodi:cy="27.875"
         sodipodi:cx="20.8125"
         id="path3755-1"
         style="fill:none;stroke:#000000;stroke-width:4.66142368;stroke-linecap:round;stroke-linejoin:round;stroke-miterlimit:4;stroke-opacity:1;stroke-dasharray:none"
         sodipodi:type="arc" />
    </g>
    <g
       transform="matrix(0.6689079,-0.6604536,0.6604536,0.6689079,-689.19675,335.74731)"
       id="g4879">
      <path
         style="fill:none;stroke:#000000;stroke-width:1.60847723;stroke-linecap:round;stroke-linejoin:round;stroke-miterlimit:4;stroke-opacity:1;stroke-dasharray:none"
         d="m -6.5733242,1051.8915 5.0418522,10.0757"
         id="path4867"
         inkscape:connector-curvature="0" />
      <path
         style="fill:none;stroke:#000000;stroke-width:1.60847723;stroke-linecap:round;stroke-linejoin:round;stroke-miterlimit:4;stroke-opacity:1;stroke-dasharray:none"
         d="m -8.6994735,1055.9387 6.7300322,-3.3678"
         id="path4869"
         inkscape:connector-curvature="0" />
    </g>
  </g>
</svg>
