<?xml version="1.0" encoding="UTF-8" standalone="no"?>
<!-- Created with Inkscape (http://www.inkscape.org/) -->

<svg
   xmlns:dc="http://purl.org/dc/elements/1.1/"
   xmlns:cc="http://creativecommons.org/ns#"
   xmlns:rdf="http://www.w3.org/1999/02/22-rdf-syntax-ns#"
   xmlns:svg="http://www.w3.org/2000/svg"
   xmlns="http://www.w3.org/2000/svg"
   xmlns:sodipodi="http://sodipodi.sourceforge.net/DTD/sodipodi-0.dtd"
   xmlns:inkscape="http://www.inkscape.org/namespaces/inkscape"
   width="64px"
   height="64px"
   id="svg2985"
   version="1.1"
   inkscape:version="0.48.1 r9760"
   sodipodi:docname="paint-fill.svg">
  <defs
     id="defs2987" />
  <sodipodi:namedview
     id="base"
     pagecolor="#ffffff"
     bordercolor="#666666"
     borderopacity="1.0"
     inkscape:pageopacity="0.0"
     inkscape:pageshadow="2"
     inkscape:zoom="5.8034652"
     inkscape:cx="15.760285"
     inkscape:cy="30.042964"
     inkscape:current-layer="g4674"
     showgrid="true"
     inkscape:document-units="px"
     inkscape:grid-bbox="true"
     inkscape:window-width="1280"
     inkscape:window-height="675"
     inkscape:window-x="0"
     inkscape:window-y="0"
     inkscape:window-maximized="0" />
  <metadata
     id="metadata2990">
    <rdf:RDF>
      <cc:Work
         rdf:about="">
        <dc:format>image/svg+xml</dc:format>
        <dc:type
           rdf:resource="http://purl.org/dc/dcmitype/StillImage" />
        <dc:title></dc:title>
      </cc:Work>
    </rdf:RDF>
  </metadata>
  <g
     id="layer1"
     inkscape:label="Layer 1"
     inkscape:groupmode="layer">
    <g
       id="g4674"
       transform="matrix(1.0997035,0,0,1.0997035,-2.6882315,-2.0738736)">
      <path
         style="fill:#ffffff;fill-opacity:1;stroke:none"
         d="M 35.954064,51.161689 C 35.248456,50.930387 34.420161,50.079186 27.316545,42.28533 l -7.857073,-8.620523 1.526768,-0.106275 c 2.03351,-0.141553 3.429138,-0.52893 5.515727,-1.530971 2.946836,-1.415153 5.564493,-3.516581 7.538246,-6.051626 0.971351,-1.24758 1.220117,-1.373391 1.220117,-0.617059 0,0.512421 0.415414,1.382132 0.930811,1.948751 1.068513,1.174705 3.06864,1.256512 4.097194,0.167578 0.781101,-0.826953 1.108695,-1.719281 1.102221,-3.002343 -0.0053,-1.048096 -0.07936,-1.332554 -0.542043,-2.081195 -0.294754,-0.476941 -0.775161,-1.008156 -1.06757,-1.180477 -0.524918,-0.309342 -0.531621,-0.331319 -0.528999,-1.73433 0.0013,-0.78156 0.06498,-1.51917 0.141133,-1.639136 0.201738,-0.31777 13.816991,14.594891 14.511295,15.89409 0.4843,0.906229 0.518933,1.093592 0.500542,2.707922 -0.05934,5.207847 -3.509694,10.329449 -8.709521,12.928109 -0.96862,0.484075 -2.331298,0.945032 -4.132836,1.398021 -2.922177,0.734767 -4.281798,0.830724 -5.608493,0.395823 z"
         id="path4686"
         inkscape:connector-curvature="0" />
      <path
         style="fill:#ffffff;fill-opacity:1;stroke:none"
         d="m 16.125274,29.608454 c -0.633195,-1.960577 -0.261195,-4.388873 1.106756,-7.224543 1.346629,-2.79147 3.319055,-5.146694 5.963596,-7.120984 1.753706,-1.309234 2.91154,-1.925488 4.861066,-2.58729 1.3855,-0.470336 1.931299,-0.565303 3.316799,-0.577119 2.716283,-0.02316 4.373267,0.82812 5.362242,2.754886 0.54158,1.055126 0.739113,3.31259 0.420044,4.800357 -0.544735,2.540013 -2.238653,5.584533 -4.430239,7.962583 l -1.121906,1.21736 -2.777239,-0.04948 c -4.904621,-0.08739 -9.38751,0.426434 -11.396454,1.306238 -0.516014,0.225986 -0.955775,0.410883 -0.97725,0.410883 -0.02148,0 -0.168811,-0.401801 -0.327415,-0.892889 z"
         id="path4684"
         inkscape:connector-curvature="0" />
      <path
         transform="matrix(0.44779715,0.46160139,0.71775764,-0.69629302,2.7009644,22.850089)"
         d="m 38.000001,17.181818 c 0,6.978871 -5.616792,12.636364 -12.545455,12.636364 -6.928663,0 -12.545455,-5.657493 -12.545455,-12.636364 0,-6.978871 5.616792,-12.636364 12.545455,-12.636364 6.928663,0 12.545455,5.657493 12.545455,12.636364 z"
         sodipodi:ry="12.636364"
         sodipodi:rx="12.545455"
         sodipodi:cy="17.181818"
         sodipodi:cx="25.454546"
         id="path2993"
         style="fill:none;stroke:#000000;stroke-width:2.26782609;stroke-linecap:round;stroke-linejoin:miter;stroke-opacity:1;stroke-miterlimit:4;stroke-dasharray:none"
         sodipodi:type="arc" />
      <path
         inkscape:connector-curvature="0"
         id="path3763"
         d="M 17.636364,31.636364 35.090909,50.727273"
         style="fill:none;stroke:#000000;stroke-width:1.81867203;stroke-linecap:round;stroke-linejoin:miter;stroke-opacity:1;stroke-miterlimit:4;stroke-dasharray:none" />
      <path
         style="fill:none;stroke:#000000;stroke-width:1.81867203000000011;stroke-linecap:round;stroke-linejoin:miter;stroke-opacity:1;stroke-miterlimit:4;stroke-dasharray:none"
         d="M 35.454545,13.818182 52.90909,32.909091"
         id="path3820"
         inkscape:connector-curvature="0" />
      <path
         sodipodi:nodetypes="cccsccc"
         inkscape:connector-curvature="0"
         id="path3845"
         d="m 14.619964,49.094768 c 2.358599,-3.336304 -1.419167,-12.603351 2.014448,-18.520108 1.811402,-2.702624 10.51384,-3.015982 15.411397,-2.891049 -0.796097,2.233479 -5.637514,4.904238 -8.248881,5.456782 -2.545478,0.538603 -4.284016,-0.171996 -4.6008,0.753705 -1.718802,8.288648 -2.227338,15.42906 -0.841032,23.970615 -1.875599,-0.326933 -0.554055,-6.073622 -3.735132,-8.769945 z"
         style="fill:#3366aa;fill-opacity:1;stroke:none" />
      <path
         inkscape:connector-curvature="0"
         id="path3843"
         d="m 27.092031,41.068982 c -2.949382,-3.23235 -5.702451,-6.245183 -6.117929,-6.695183 l -0.755415,-0.818182 1.845202,-0.01218 c 3.607246,-0.02381 7.196404,-1.710604 10.373512,-4.875226 3.158973,-3.146557 4.798323,-6.331794 5.151414,-10.009131 l 0.138458,-1.441992 5.711838,6.260174 c 3.141513,3.443096 5.899,6.46515 6.127749,6.715676 l 0.415911,0.455503 -1.42064,-0.06452 c -5.210542,-0.236623 -11.621182,4.094101 -14.453176,9.763879 -0.888,1.777815 -1.387936,3.451437 -1.529159,5.11912 l -0.125251,1.479062 -5.362514,-5.877004 z"
         style="fill:none" />
      <path
         sodipodi:nodetypes="cccc"
         inkscape:connector-curvature="0"
         id="path3857"
         d="m 34.325863,50.197652 c 3.108139,1.864491 5.225974,0.813895 7.83755,0.216994 C 47.357007,49.382593 53.877928,44.25325 53.994241,35.975609 53.892,34.875107 53.256244,32.96212 52.185502,32.190012"
         style="fill:none;stroke:#00001f;stroke-width:1.81867203;stroke-linecap:round;stroke-linejoin:miter;stroke-opacity:1;stroke-miterlimit:4;stroke-dasharray:none" />
      <path
         sodipodi:nodetypes="czsc"
         inkscape:connector-curvature="0"
         id="path3867"
         d="M 20.113536,17.542945 C 20.05045,12.310076 19.56935,7.2878906 24.645766,5.5511761 29.722182,3.8144615 36.752632,4.5958918 37.705909,8.742918 c 1.017679,4.427196 0.412179,13.451836 0.527739,16.84694"
         style="fill:none;stroke:#000000;stroke-width:1.81867203;stroke-linecap:round;stroke-linejoin:miter;stroke-opacity:1;stroke-miterlimit:4;stroke-dasharray:none" />
      <path
         transform="matrix(2.5171983,0,0,2.8415286,-55.215818,-45.252489)"
         d="m 37.909025,25.048973 a 0.74428713,0.84352541 0 1 1 -1.488574,0 0.74428713,0.84352541 0 1 1 1.488574,0 z"
         sodipodi:ry="0.84352541"
         sodipodi:rx="0.74428713"
         sodipodi:cy="25.048973"
         sodipodi:cx="37.164738"
         id="path3871"
         style="fill:none;stroke:#00001f;stroke-width:0.68001682;stroke-miterlimit:4;stroke-opacity:1;stroke-dasharray:none"
         sodipodi:type="arc" />
    </g>
  </g>
</svg>
