<?xml version="1.0" encoding="UTF-8" standalone="no"?>
<!-- Created with Inkscape (http://www.inkscape.org/) -->

<svg
   xmlns:dc="http://purl.org/dc/elements/1.1/"
   xmlns:cc="http://creativecommons.org/ns#"
   xmlns:rdf="http://www.w3.org/1999/02/22-rdf-syntax-ns#"
   xmlns:svg="http://www.w3.org/2000/svg"
   xmlns="http://www.w3.org/2000/svg"
   xmlns:sodipodi="http://sodipodi.sourceforge.net/DTD/sodipodi-0.dtd"
   xmlns:inkscape="http://www.inkscape.org/namespaces/inkscape"
   width="64"
   height="64"
   id="svg2"
   version="1.1"
   inkscape:version="0.48.1 r9760"
   sodipodi:docname="new_chart.svg">
  <defs
     id="defs4" />
  <sodipodi:namedview
     id="base"
     pagecolor="#ffffff"
     bordercolor="#666666"
     borderopacity="1.0"
     inkscape:pageopacity="0.0"
     inkscape:pageshadow="2"
     inkscape:zoom="2"
     inkscape:cx="20.46646"
     inkscape:cy="-8.8090967"
     inkscape:document-units="px"
     inkscape:current-layer="layer1"
     showgrid="false"
     inkscape:window-width="1280"
     inkscape:window-height="675"
     inkscape:window-x="0"
     inkscape:window-y="0"
     inkscape:window-maximized="0" />
  <metadata
     id="metadata7">
    <rdf:RDF>
      <cc:Work
         rdf:about="">
        <dc:format>image/svg+xml</dc:format>
        <dc:type
           rdf:resource="http://purl.org/dc/dcmitype/StillImage" />
        <dc:title />
      </cc:Work>
    </rdf:RDF>
  </metadata>
  <g
     inkscape:label="Layer 1"
     inkscape:groupmode="layer"
     id="layer1"
     transform="translate(0,-988.36218)">
    <path
       style="fill:#00ff00;stroke:#00be00;stroke-width:8;stroke-linecap:round;stroke-linejoin:round;stroke-miterlimit:4;stroke-opacity:1;stroke-dasharray:none"
       d="m 60.103553,1038.3407 -20.5,0"
       id="path2985-6"
       inkscape:connector-curvature="0" />
    <g
       style="font-size:41.66669846px;font-style:normal;font-weight:400;fill:none;stroke:none;font-family:Ubuntu"
       transform="matrix(0.19126046,0,0,0.1374779,1.7549634,993.11382)"
       font-size="41.6667"
       font-weight="400"
       font-style="normal"
       id="g3702">
      <path
         inkscape:connector-curvature="0"
         vector-effect="non-scaling-stroke"
         d="m 62.9091,35.7273 c 0,10.5938 -13.228,19.1818 -29.5455,19.1818 -16.3175,0 -29.54542,-8.588 -29.54542,-19.1818 0,-10.5939 13.22792,-19.1818 29.54542,-19.1818 16.3175,0 29.5455,8.5879 29.5455,19.1818"
         id="path3704" />
    </g>
    <g
       style="font-size:41.66669846px;font-style:normal;font-weight:400;fill:none;stroke:#000000;stroke-width:12.33391476;stroke-linecap:round;stroke-linejoin:round;stroke-miterlimit:4;stroke-opacity:1;stroke-dasharray:none;font-family:Ubuntu"
       transform="matrix(0.19126046,0,0,0.1374779,1.7549634,993.11382)"
       font-size="41.6667"
       font-weight="400"
       font-style="normal"
       id="g3706">
      <path
         inkscape:connector-curvature="0"
         vector-effect="none"
         d="m 62.9091,35.7273 c 0,10.5938 -13.228,19.1818 -29.5455,19.1818 -16.3175,0 -29.54542,-8.588 -29.54542,-19.1818 0,-10.5939 13.22792,-19.1818 29.54542,-19.1818 16.3175,0 29.5455,8.5879 29.5455,19.1818"
         id="path3708"
         style="stroke-width:12.33391476;stroke-miterlimit:4;stroke-dasharray:none" />
    </g>
    <g
       style="font-size:41.66669846px;font-style:normal;font-weight:400;fill:none;stroke:none;font-family:Ubuntu"
       transform="matrix(0.19126046,0,0,0.1374779,13.810147,993.11382)"
       font-size="41.6667"
       font-weight="400"
       font-style="normal"
       id="g3716">
      <path
         inkscape:connector-curvature="0"
         vector-effect="non-scaling-stroke"
         d="m 62.9091,35.7273 c 0,10.5938 -13.228,19.1818 -29.5455,19.1818 -16.3175,0 -29.54542,-8.588 -29.54542,-19.1818 0,-10.5939 13.22792,-19.1818 29.54542,-19.1818 16.3175,0 29.5455,8.5879 29.5455,19.1818"
         id="path3718" />
    </g>
    <g
       style="font-size:41.66669846px;font-style:normal;font-weight:400;fill:none;stroke:#000000;stroke-width:12.33391476;stroke-linecap:round;stroke-linejoin:round;stroke-miterlimit:4;stroke-opacity:1;stroke-dasharray:none;font-family:Ubuntu"
       transform="matrix(0.19126046,0,0,0.1374779,13.810147,993.11382)"
       font-size="41.6667"
       font-weight="400"
       font-style="normal"
       id="g3720">
      <path
         inkscape:connector-curvature="0"
         vector-effect="none"
         d="m 62.9091,35.7273 c 0,10.5938 -13.228,19.1818 -29.5455,19.1818 -16.3175,0 -29.54542,-8.588 -29.54542,-19.1818 0,-10.5939 13.22792,-19.1818 29.54542,-19.1818 16.3175,0 29.5455,8.5879 29.5455,19.1818"
         id="path3722"
         style="stroke-width:12.33391476;stroke-miterlimit:4;stroke-dasharray:none" />
    </g>
    <g
       style="font-size:41.66669846px;font-style:normal;font-weight:400;fill:none;stroke:none;font-family:Ubuntu"
       transform="matrix(0.19126046,0,0,0.1374779,25.865388,993.11382)"
       font-size="41.6667"
       font-weight="400"
       font-style="normal"
       id="g3730">
      <path
         inkscape:connector-curvature="0"
         vector-effect="non-scaling-stroke"
         d="m 62.9091,35.7273 c 0,10.5938 -13.228,19.1818 -29.5455,19.1818 -16.3175,0 -29.54542,-8.588 -29.54542,-19.1818 0,-10.5939 13.22792,-19.1818 29.54542,-19.1818 16.3175,0 29.5455,8.5879 29.5455,19.1818"
         id="path3732" />
    </g>
    <g
       style="font-size:41.66669846px;font-style:normal;font-weight:400;fill:none;stroke:#000000;stroke-width:12.33391476;stroke-linecap:round;stroke-linejoin:round;stroke-miterlimit:4;stroke-opacity:1;stroke-dasharray:none;font-family:Ubuntu"
       transform="matrix(0.19126046,0,0,0.1374779,25.865388,993.11382)"
       font-size="41.6667"
       font-weight="400"
       font-style="normal"
       id="g3734">
      <path
         inkscape:connector-curvature="0"
         vector-effect="none"
         d="m 62.9091,35.7273 c 0,10.5938 -13.228,19.1818 -29.5455,19.1818 -16.3175,0 -29.54542,-8.588 -29.54542,-19.1818 0,-10.5939 13.22792,-19.1818 29.54542,-19.1818 16.3175,0 29.5455,8.5879 29.5455,19.1818"
         id="path3736"
         style="stroke-width:12.33391476;stroke-miterlimit:4;stroke-dasharray:none" />
    </g>
    <g
       style="font-size:41.66669846px;font-style:normal;font-weight:400;fill:none;stroke:none;font-family:Ubuntu"
       transform="matrix(0.19126046,0,0,0.1374779,37.920427,993.11382)"
       font-size="41.6667"
       font-weight="400"
       font-style="normal"
       id="g3744">
      <path
         inkscape:connector-curvature="0"
         vector-effect="non-scaling-stroke"
         d="m 62.9091,35.7273 c 0,10.5938 -13.228,19.1818 -29.5455,19.1818 -16.3175,0 -29.54542,-8.588 -29.54542,-19.1818 0,-10.5939 13.22792,-19.1818 29.54542,-19.1818 16.3175,0 29.5455,8.5879 29.5455,19.1818"
         id="path3746" />
    </g>
    <g
       style="font-size:41.66669846px;font-style:normal;font-weight:400;fill:none;stroke:#000000;stroke-width:12.33391476;stroke-linecap:round;stroke-linejoin:round;stroke-miterlimit:4;stroke-opacity:1;stroke-dasharray:none;font-family:Ubuntu"
       transform="matrix(0.19126046,0,0,0.1374779,37.920427,993.11382)"
       font-size="41.6667"
       font-weight="400"
       font-style="normal"
       id="g3748">
      <path
         inkscape:connector-curvature="0"
         vector-effect="none"
         d="m 62.9091,35.7273 c 0,10.5938 -13.228,19.1818 -29.5455,19.1818 -16.3175,0 -29.54542,-8.588 -29.54542,-19.1818 0,-10.5939 13.22792,-19.1818 29.54542,-19.1818 16.3175,0 29.5455,8.5879 29.5455,19.1818"
         id="path3750"
         style="stroke-width:12.33391476;stroke-miterlimit:4;stroke-dasharray:none" />
    </g>
    <g
       style="font-size:41.66669846px;font-style:normal;font-weight:400;fill:none;stroke:none;font-family:Ubuntu"
       transform="matrix(0.19126046,0,0,0.1374779,49.975634,993.11382)"
       font-size="41.6667"
       font-weight="400"
       font-style="normal"
       id="g3758">
      <path
         inkscape:connector-curvature="0"
         vector-effect="non-scaling-stroke"
         d="m 62.9091,35.7273 c 0,10.5938 -13.228,19.1818 -29.5455,19.1818 -16.3175,0 -29.54542,-8.588 -29.54542,-19.1818 0,-10.5939 13.22792,-19.1818 29.54542,-19.1818 16.3175,0 29.5455,8.5879 29.5455,19.1818"
         id="path3760" />
    </g>
    <g
       style="font-size:41.66669846px;font-style:normal;font-weight:400;fill:none;stroke:#000000;stroke-width:12.33391476;stroke-linecap:round;stroke-linejoin:round;stroke-miterlimit:4;stroke-opacity:1;stroke-dasharray:none;font-family:Ubuntu"
       transform="matrix(0.19126046,0,0,0.1374779,49.975634,993.11382)"
       font-size="41.6667"
       font-weight="400"
       font-style="normal"
       id="g3762">
      <path
         inkscape:connector-curvature="0"
         vector-effect="none"
         d="m 62.9091,35.7273 c 0,10.5938 -13.228,19.1818 -29.5455,19.1818 -16.3175,0 -29.54542,-8.588 -29.54542,-19.1818 0,-10.5939 13.22792,-19.1818 29.54542,-19.1818 16.3175,0 29.5455,8.5879 29.5455,19.1818"
         id="path3764"
         style="stroke-width:12.33391476;stroke-miterlimit:4;stroke-dasharray:none" />
    </g>
    <g
       style="font-size:41.66669846px;font-style:normal;font-weight:400;fill:none;stroke:none;font-family:Ubuntu"
       transform="matrix(0.19126046,0,0,0.1374779,1.7549634,1003.4012)"
       font-size="41.6667"
       font-weight="400"
       font-style="normal"
       id="g3792">
      <path
         inkscape:connector-curvature="0"
         vector-effect="non-scaling-stroke"
         d="m 62.9091,35.7273 c 0,10.5938 -13.228,19.1818 -29.5455,19.1818 -16.3175,0 -29.54542,-8.588 -29.54542,-19.1818 0,-10.5939 13.22792,-19.1818 29.54542,-19.1818 16.3175,0 29.5455,8.5879 29.5455,19.1818"
         id="path3794" />
    </g>
    <g
       style="font-size:41.66669846px;font-style:normal;font-weight:400;fill:none;stroke:#3366aa;stroke-width:12.33391476;stroke-linecap:round;stroke-linejoin:round;stroke-miterlimit:4;stroke-opacity:1;stroke-dasharray:none;font-family:Ubuntu"
       transform="matrix(0.19126046,0,0,0.1374779,1.7549634,1003.4012)"
       font-size="41.6667"
       font-weight="400"
       font-style="normal"
       id="g3796">
      <path
         inkscape:connector-curvature="0"
         vector-effect="none"
         d="m 62.9091,35.7273 c 0,10.5938 -13.228,19.1818 -29.5455,19.1818 -16.3175,0 -29.54542,-8.588 -29.54542,-19.1818 0,-10.5939 13.22792,-19.1818 29.54542,-19.1818 16.3175,0 29.5455,8.5879 29.5455,19.1818"
         id="path3798"
         style="stroke-width:12.33391476;stroke-miterlimit:4;stroke-dasharray:none" />
    </g>
    <g
       style="font-size:41.66669846px;font-style:normal;font-weight:400;fill:none;stroke:none;font-family:Ubuntu"
       transform="matrix(0.15551466,-0.10628026,0.10628026,0.15551466,18.615853,1013.6766)"
       font-size="41.6667"
       font-weight="400"
       font-style="normal"
       id="g3806">
      <path
         inkscape:connector-curvature="0"
         vector-effect="non-scaling-stroke"
         d="m 31.1658,-23.5341 0,80.0796"
         id="path3808" />
    </g>
    <g
       style="font-size:41.66669846px;font-style:normal;font-weight:400;fill:none;stroke:#3366aa;stroke-width:10.61784363;stroke-linecap:round;stroke-linejoin:round;stroke-miterlimit:4;stroke-opacity:1;stroke-dasharray:none;font-family:Ubuntu"
       transform="matrix(0.15551466,-0.10628026,0.10628026,0.15551466,18.615853,1013.6766)"
       font-size="41.6667"
       font-weight="400"
       font-style="normal"
       id="g3810">
      <path
         inkscape:connector-curvature="0"
         vector-effect="none"
         d="m 31.1658,-23.5341 0,80.0796"
         id="path3812"
         style="stroke-width:10.61784363;stroke-miterlimit:4;stroke-dasharray:none" />
    </g>
    <g
       style="font-size:41.66669846px;font-style:normal;font-weight:400;fill:none;stroke:none;font-family:Ubuntu"
       transform="matrix(0.15551466,-0.10628026,0.10628026,0.15551466,18.615853,1013.6766)"
       font-size="41.6667"
       font-weight="400"
       font-style="normal"
       id="g3814">
      <path
         inkscape:connector-curvature="0"
         vector-effect="non-scaling-stroke"
         d="m 4.72716,-24.9616 52.87724,0"
         id="path3816" />
    </g>
    <g
       style="font-size:41.66669846px;font-style:normal;font-weight:400;fill:none;stroke:#3366aa;stroke-width:10.61784363;stroke-linecap:round;stroke-linejoin:round;stroke-miterlimit:4;stroke-opacity:1;stroke-dasharray:none;font-family:Ubuntu"
       transform="matrix(0.15551466,-0.10628026,0.10628026,0.15551466,18.615853,1013.6766)"
       font-size="41.6667"
       font-weight="400"
       font-style="normal"
       id="g3818">
      <path
         inkscape:connector-curvature="0"
         vector-effect="none"
         d="m 4.72716,-24.9616 52.87724,0"
         id="path3820"
         style="stroke-width:10.61784363;stroke-miterlimit:4;stroke-dasharray:none" />
    </g>
    <g
       style="font-size:41.66669846px;font-style:normal;font-weight:400;fill:none;stroke:none;font-family:Ubuntu"
       transform="matrix(0.15551466,-0.10628026,0.10628026,0.15551466,18.615853,1013.6766)"
       font-size="41.6667"
       font-weight="400"
       font-style="normal"
       id="g3822">
      <path
         inkscape:connector-curvature="0"
         vector-effect="non-scaling-stroke"
         d="m 23.6571,12.4577 15.0174,6.721"
         id="path3824" />
    </g>
    <g
       style="font-size:41.66669846px;font-style:normal;font-weight:400;fill:none;stroke:#3366aa;stroke-width:10.61784363;stroke-linecap:round;stroke-linejoin:round;stroke-miterlimit:4;stroke-opacity:1;stroke-dasharray:none;font-family:Ubuntu"
       transform="matrix(0.15551466,-0.10628026,0.10628026,0.15551466,18.615853,1013.6766)"
       font-size="41.6667"
       font-weight="400"
       font-style="normal"
       id="g3826">
      <path
         inkscape:connector-curvature="0"
         vector-effect="none"
         d="m 23.6571,12.4577 15.0174,6.721"
         id="path3828"
         style="stroke-width:10.61784363;stroke-miterlimit:4;stroke-dasharray:none" />
    </g>
    <g
       style="font-size:41.66669846px;font-style:normal;font-weight:400;fill:none;stroke:none;font-family:Ubuntu"
       transform="matrix(0.15703088,0.10402697,-0.10402697,0.15703088,35.947873,1006.9952)"
       font-size="41.6667"
       font-weight="400"
       font-style="normal"
       id="g3842">
      <path
         inkscape:connector-curvature="0"
         vector-effect="non-scaling-stroke"
         d="m 31.1658,-23.5341 0,80.0796"
         id="path3844" />
    </g>
    <g
       style="font-size:41.66669846px;font-style:normal;font-weight:400;fill:none;stroke:#3366aa;stroke-width:10.61784363;stroke-linecap:round;stroke-linejoin:round;stroke-miterlimit:4;stroke-opacity:1;stroke-dasharray:none;font-family:Ubuntu"
       transform="matrix(0.15703088,0.10402697,-0.10402697,0.15703088,35.947873,1006.9952)"
       font-size="41.6667"
       font-weight="400"
       font-style="normal"
       id="g3846">
      <path
         inkscape:connector-curvature="0"
         vector-effect="none"
         d="m 31.1658,-23.5341 0,80.0796"
         id="path3848"
         style="stroke-width:10.61784363;stroke-miterlimit:4;stroke-dasharray:none" />
    </g>
    <g
       style="font-size:41.66669846px;font-style:normal;font-weight:400;fill:none;stroke:none;font-family:Ubuntu"
       transform="matrix(0.15703088,0.10402697,-0.10402697,0.15703088,35.947873,1006.9952)"
       font-size="41.6667"
       font-weight="400"
       font-style="normal"
       id="g3850">
      <path
         inkscape:connector-curvature="0"
         vector-effect="non-scaling-stroke"
         d="m 4.72716,-24.9616 52.87724,0"
         id="path3852" />
    </g>
    <g
       style="font-size:41.66669846px;font-style:normal;font-weight:400;fill:none;stroke:#3366aa;stroke-width:10.61784363;stroke-linecap:round;stroke-linejoin:round;stroke-miterlimit:4;stroke-opacity:1;stroke-dasharray:none;font-family:Ubuntu"
       transform="matrix(0.15703088,0.10402697,-0.10402697,0.15703088,35.947873,1006.9952)"
       font-size="41.6667"
       font-weight="400"
       font-style="normal"
       id="g3854">
      <path
         inkscape:connector-curvature="0"
         vector-effect="none"
         d="m 4.72716,-24.9616 52.87724,0"
         id="path3856"
         style="stroke-width:10.61784363;stroke-miterlimit:4;stroke-dasharray:none" />
    </g>
    <g
       style="font-size:41.66669846px;font-style:normal;font-weight:400;fill:none;stroke:none;font-family:Ubuntu"
       transform="matrix(0.15703088,0.10402697,-0.10402697,0.15703088,35.947873,1006.9952)"
       font-size="41.6667"
       font-weight="400"
       font-style="normal"
       id="g3858">
      <path
         inkscape:connector-curvature="0"
         vector-effect="non-scaling-stroke"
         d="m 23.6571,12.4577 15.0174,6.721"
         id="path3860" />
    </g>
    <g
       style="font-size:41.66669846px;font-style:normal;font-weight:400;fill:none;stroke:#3366aa;stroke-width:10.61784363;stroke-linecap:round;stroke-linejoin:round;stroke-miterlimit:4;stroke-opacity:1;stroke-dasharray:none;font-family:Ubuntu"
       transform="matrix(0.15703088,0.10402697,-0.10402697,0.15703088,35.947873,1006.9952)"
       font-size="41.6667"
       font-weight="400"
       font-style="normal"
       id="g3862">
      <path
         inkscape:connector-curvature="0"
         vector-effect="none"
         d="m 23.6571,12.4577 15.0174,6.721"
         id="path3864"
         style="stroke-width:10.61784363;stroke-miterlimit:4;stroke-dasharray:none" />
    </g>
    <g
       style="font-size:41.66669846px;font-style:normal;font-weight:400;fill:none;stroke:none;font-family:Ubuntu"
       transform="matrix(0.19126046,0,0,0.1374779,49.975634,1003.4012)"
       font-size="41.6667"
       font-weight="400"
       font-style="normal"
       id="g3872">
      <path
         inkscape:connector-curvature="0"
         vector-effect="non-scaling-stroke"
         d="m 62.9091,35.7273 c 0,10.5938 -13.228,19.1818 -29.5455,19.1818 -16.3175,0 -29.54542,-8.588 -29.54542,-19.1818 0,-10.5939 13.22792,-19.1818 29.54542,-19.1818 16.3175,0 29.5455,8.5879 29.5455,19.1818"
         id="path3874" />
    </g>
    <g
       style="font-size:41.66669846px;font-style:normal;font-weight:400;fill:none;stroke:#3366aa;stroke-width:12.33391476;stroke-linecap:round;stroke-linejoin:round;stroke-miterlimit:4;stroke-opacity:1;stroke-dasharray:none;font-family:Ubuntu"
       transform="matrix(0.19126046,0,0,0.1374779,49.975634,1003.4012)"
       font-size="41.6667"
       font-weight="400"
       font-style="normal"
       id="g3876">
      <path
         inkscape:connector-curvature="0"
         vector-effect="none"
         d="m 62.9091,35.7273 c 0,10.5938 -13.228,19.1818 -29.5455,19.1818 -16.3175,0 -29.54542,-8.588 -29.54542,-19.1818 0,-10.5939 13.22792,-19.1818 29.54542,-19.1818 16.3175,0 29.5455,8.5879 29.5455,19.1818"
         id="path3878"
         style="stroke-width:12.33391476;stroke-miterlimit:4;stroke-dasharray:none" />
    </g>
    <g
       style="font-size:41.66669846px;font-style:normal;font-weight:400;fill:none;stroke:none;font-family:Ubuntu"
       transform="matrix(0.19126046,0,0,0.1374779,1.7549634,1015.4564)"
       font-size="41.6667"
       font-weight="400"
       font-style="normal"
       id="g3906">
      <path
         inkscape:connector-curvature="0"
         vector-effect="non-scaling-stroke"
         d="m 62.9091,35.7273 c 0,10.5938 -13.228,19.1818 -29.5455,19.1818 -16.3175,0 -29.54542,-8.588 -29.54542,-19.1818 0,-10.5939 13.22792,-19.1818 29.54542,-19.1818 16.3175,0 29.5455,8.5879 29.5455,19.1818"
         id="path3908" />
    </g>
    <g
       style="font-size:41.66669846px;font-style:normal;font-weight:400;fill:none;stroke:#000000;stroke-width:12.33391476;stroke-linecap:round;stroke-linejoin:round;stroke-miterlimit:4;stroke-opacity:1;stroke-dasharray:none;font-family:Ubuntu"
       transform="matrix(0.19126046,0,0,0.1374779,1.7549634,1015.4564)"
       font-size="41.6667"
       font-weight="400"
       font-style="normal"
       id="g3910">
      <path
         inkscape:connector-curvature="0"
         vector-effect="none"
         d="m 62.9091,35.7273 c 0,10.5938 -13.228,19.1818 -29.5455,19.1818 -16.3175,0 -29.54542,-8.588 -29.54542,-19.1818 0,-10.5939 13.22792,-19.1818 29.54542,-19.1818 16.3175,0 29.5455,8.5879 29.5455,19.1818"
         id="path3912"
         style="stroke-width:12.33391476;stroke-miterlimit:4;stroke-dasharray:none" />
    </g>
    <g
       style="font-size:41.66669846px;font-style:normal;font-weight:400;fill:none;stroke:none;font-family:Ubuntu"
       transform="matrix(0.19126046,0,0,0.1374779,25.865388,1015.4564)"
       font-size="41.6667"
       font-weight="400"
       font-style="normal"
       id="g3926">
      <path
         inkscape:connector-curvature="0"
         vector-effect="non-scaling-stroke"
         d="m 62.9091,35.7273 c 0,10.5938 -13.228,19.1818 -29.5455,19.1818 -16.3175,0 -29.54542,-8.588 -29.54542,-19.1818 0,-10.5939 13.22792,-19.1818 29.54542,-19.1818 16.3175,0 29.5455,8.5879 29.5455,19.1818"
         id="path3928" />
    </g>
    <g
       style="font-size:41.66669846px;font-style:normal;font-weight:400;fill:none;stroke:#000000;stroke-width:12.33391476;stroke-linecap:round;stroke-linejoin:round;stroke-miterlimit:4;stroke-opacity:1;stroke-dasharray:none;font-family:Ubuntu"
       transform="matrix(0.19126046,0,0,0.1374779,25.865388,1015.4564)"
       font-size="41.6667"
       font-weight="400"
       font-style="normal"
       id="g3930">
      <path
         inkscape:connector-curvature="0"
         vector-effect="none"
         d="m 62.9091,35.7273 c 0,10.5938 -13.228,19.1818 -29.5455,19.1818 -16.3175,0 -29.54542,-8.588 -29.54542,-19.1818 0,-10.5939 13.22792,-19.1818 29.54542,-19.1818 16.3175,0 29.5455,8.5879 29.5455,19.1818"
         id="path3932"
         style="stroke-width:12.33391476;stroke-miterlimit:4;stroke-dasharray:none" />
    </g>
    <g
       style="font-size:41.66669846px;font-style:normal;font-weight:400;fill:none;stroke:none;font-family:Ubuntu"
       transform="matrix(0.19126046,0,0,0.1374779,49.975634,1015.4564)"
       font-size="41.6667"
       font-weight="400"
       font-style="normal"
       id="g3946">
      <path
         inkscape:connector-curvature="0"
         vector-effect="non-scaling-stroke"
         d="m 62.9091,35.7273 c 0,10.5938 -13.228,19.1818 -29.5455,19.1818 -16.3175,0 -29.54542,-8.588 -29.54542,-19.1818 0,-10.5939 13.22792,-19.1818 29.54542,-19.1818 16.3175,0 29.5455,8.5879 29.5455,19.1818"
         id="path3948" />
    </g>
    <g
       style="font-size:41.66669846px;font-style:normal;font-weight:400;fill:none;stroke:#000000;stroke-width:12.33391476;stroke-linecap:round;stroke-linejoin:round;stroke-miterlimit:4;stroke-opacity:1;stroke-dasharray:none;font-family:Ubuntu"
       transform="matrix(0.19126046,0,0,0.1374779,49.975634,1015.4564)"
       font-size="41.6667"
       font-weight="400"
       font-style="normal"
       id="g3950">
      <path
         inkscape:connector-curvature="0"
         vector-effect="none"
         d="m 62.9091,35.7273 c 0,10.5938 -13.228,19.1818 -29.5455,19.1818 -16.3175,0 -29.54542,-8.588 -29.54542,-19.1818 0,-10.5939 13.22792,-19.1818 29.54542,-19.1818 16.3175,0 29.5455,8.5879 29.5455,19.1818"
         id="path3952"
         style="stroke-width:12.33391476;stroke-miterlimit:4;stroke-dasharray:none" />
    </g>
    <g
       style="font-size:41.66669846px;font-style:normal;font-weight:400;fill:none;stroke:none;font-family:Ubuntu"
       transform="matrix(0.19126046,0,0,0.1374779,1.7549634,1025.0368)"
       font-size="41.6667"
       font-weight="400"
       font-style="normal"
       id="g3980">
      <path
         inkscape:connector-curvature="0"
         vector-effect="non-scaling-stroke"
         d="m 62.9091,35.7273 c 0,10.5938 -13.228,19.1818 -29.5455,19.1818 -16.3175,0 -29.54542,-8.588 -29.54542,-19.1818 0,-10.5939 13.22792,-19.1818 29.54542,-19.1818 16.3175,0 29.5455,8.5879 29.5455,19.1818"
         id="path3982" />
    </g>
    <g
       style="font-size:41.66669846px;font-style:normal;font-weight:400;fill:none;stroke:#3366aa;stroke-width:12.33391476;stroke-linecap:round;stroke-linejoin:round;stroke-miterlimit:4;stroke-opacity:1;stroke-dasharray:none;font-family:Ubuntu"
       transform="matrix(0.19126046,0,0,0.1374779,1.7549634,1025.0368)"
       font-size="41.6667"
       font-weight="400"
       font-style="normal"
       id="g3984">
      <path
         inkscape:connector-curvature="0"
         vector-effect="none"
         d="m 62.9091,35.7273 c 0,10.5938 -13.228,19.1818 -29.5455,19.1818 -16.3175,0 -29.54542,-8.588 -29.54542,-19.1818 0,-10.5939 13.22792,-19.1818 29.54542,-19.1818 16.3175,0 29.5455,8.5879 29.5455,19.1818"
         id="path3986"
         style="stroke-width:12.33391476;stroke-miterlimit:4;stroke-dasharray:none" />
    </g>
    <g
       style="font-size:41.66669846px;font-style:normal;font-weight:400;fill:none;stroke:none;font-family:Ubuntu"
       transform="matrix(0.19126046,0,0,0.1374779,13.810147,1025.0368)"
       font-size="41.6667"
       font-weight="400"
       font-style="normal"
       id="g3994">
      <path
         inkscape:connector-curvature="0"
         vector-effect="non-scaling-stroke"
         d="m 62.9091,35.7273 c 0,10.5938 -13.228,19.1818 -29.5455,19.1818 -16.3175,0 -29.54542,-8.588 -29.54542,-19.1818 0,-10.5939 13.22792,-19.1818 29.54542,-19.1818 16.3175,0 29.5455,8.5879 29.5455,19.1818"
         id="path3996" />
    </g>
    <g
       style="font-size:41.66669846px;font-style:normal;font-weight:400;fill:none;stroke:#3366aa;stroke-width:12.33391476;stroke-linecap:round;stroke-linejoin:round;stroke-miterlimit:4;stroke-opacity:1;stroke-dasharray:none;font-family:Ubuntu"
       transform="matrix(0.19126046,0,0,0.1374779,13.810147,1025.0368)"
       font-size="41.6667"
       font-weight="400"
       font-style="normal"
       id="g3998">
      <path
         inkscape:connector-curvature="0"
         vector-effect="none"
         d="m 62.9091,35.7273 c 0,10.5938 -13.228,19.1818 -29.5455,19.1818 -16.3175,0 -29.54542,-8.588 -29.54542,-19.1818 0,-10.5939 13.22792,-19.1818 29.54542,-19.1818 16.3175,0 29.5455,8.5879 29.5455,19.1818"
         id="path4000"
         style="stroke-width:12.33391476;stroke-miterlimit:4;stroke-dasharray:none" />
    </g>
    <g
       style="font-size:41.66669846px;font-style:normal;font-weight:400;fill:none;stroke:none;font-family:Ubuntu"
       transform="matrix(0.19126046,0,0,0.1374779,25.865388,1025.0368)"
       font-size="41.6667"
       font-weight="400"
       font-style="normal"
       id="g4008">
      <path
         inkscape:connector-curvature="0"
         vector-effect="non-scaling-stroke"
         d="m 62.9091,35.7273 c 0,10.5938 -13.228,19.1818 -29.5455,19.1818 -16.3175,0 -29.54542,-8.588 -29.54542,-19.1818 0,-10.5939 13.22792,-19.1818 29.54542,-19.1818 16.3175,0 29.5455,8.5879 29.5455,19.1818"
         id="path4010" />
    </g>
    <g
       style="font-size:41.66669846px;font-style:normal;font-weight:400;fill:none;stroke:#3366aa;stroke-width:12.33391476;stroke-linecap:round;stroke-linejoin:round;stroke-miterlimit:4;stroke-opacity:1;stroke-dasharray:none;font-family:Ubuntu"
       transform="matrix(0.19126046,0,0,0.1374779,25.865388,1025.0368)"
       font-size="41.6667"
       font-weight="400"
       font-style="normal"
       id="g4012">
      <path
         inkscape:connector-curvature="0"
         vector-effect="none"
         d="m 62.9091,35.7273 c 0,10.5938 -13.228,19.1818 -29.5455,19.1818 -16.3175,0 -29.54542,-8.588 -29.54542,-19.1818 0,-10.5939 13.22792,-19.1818 29.54542,-19.1818 16.3175,0 29.5455,8.5879 29.5455,19.1818"
         id="path4014"
         style="stroke-width:12.33391476;stroke-miterlimit:4;stroke-dasharray:none" />
    </g>
    <g
       style="font-size:41.66669846px;font-style:normal;font-weight:400;fill:none;stroke:none;font-family:Ubuntu"
       transform="matrix(0.19126046,0,0,0.1374779,37.920427,1025.0368)"
       font-size="41.6667"
       font-weight="400"
       font-style="normal"
       id="g4022">
      <path
         inkscape:connector-curvature="0"
         vector-effect="non-scaling-stroke"
         d="m 62.9091,35.7273 c 0,10.5938 -13.228,19.1818 -29.5455,19.1818 -16.3175,0 -29.54542,-8.588 -29.54542,-19.1818 0,-10.5939 13.22792,-19.1818 29.54542,-19.1818 16.3175,0 29.5455,8.5879 29.5455,19.1818"
         id="path4024" />
    </g>
    <g
       style="font-size:41.66669846px;font-style:normal;font-weight:400;fill:none;stroke:#3366aa;stroke-width:12.33391476;stroke-linecap:round;stroke-linejoin:round;stroke-miterlimit:4;stroke-opacity:1;stroke-dasharray:none;font-family:Ubuntu"
       transform="matrix(0.19126046,0,0,0.1374779,37.920427,1025.0368)"
       font-size="41.6667"
       font-weight="400"
       font-style="normal"
       id="g4026">
      <path
         inkscape:connector-curvature="0"
         vector-effect="none"
         d="m 62.9091,35.7273 c 0,10.5938 -13.228,19.1818 -29.5455,19.1818 -16.3175,0 -29.54542,-8.588 -29.54542,-19.1818 0,-10.5939 13.22792,-19.1818 29.54542,-19.1818 16.3175,0 29.5455,8.5879 29.5455,19.1818"
         id="path4028"
         style="stroke-width:12.33391476;stroke-miterlimit:4;stroke-dasharray:none" />
    </g>
    <g
       style="font-size:41.66669846px;font-style:normal;font-weight:400;fill:none;stroke:none;font-family:Ubuntu"
       transform="matrix(0.19126046,0,0,0.1374779,49.975634,1025.0368)"
       font-size="41.6667"
       font-weight="400"
       font-style="normal"
       id="g4036">
      <path
         inkscape:connector-curvature="0"
         vector-effect="non-scaling-stroke"
         d="m 62.9091,35.7273 c 0,10.5938 -13.228,19.1818 -29.5455,19.1818 -16.3175,0 -29.54542,-8.588 -29.54542,-19.1818 0,-10.5939 13.22792,-19.1818 29.54542,-19.1818 16.3175,0 29.5455,8.5879 29.5455,19.1818"
         id="path4038" />
    </g>
    <g
       style="font-size:41.66669846px;font-style:normal;font-weight:400;fill:none;stroke:#3366aa;stroke-width:12.33391476;stroke-linecap:round;stroke-linejoin:round;stroke-miterlimit:4;stroke-opacity:1;stroke-dasharray:none;font-family:Ubuntu"
       transform="matrix(0.19126046,0,0,0.1374779,49.975634,1025.0368)"
       font-size="41.6667"
       font-weight="400"
       font-style="normal"
       id="g4040">
      <path
         inkscape:connector-curvature="0"
         vector-effect="none"
         d="m 62.9091,35.7273 c 0,10.5938 -13.228,19.1818 -29.5455,19.1818 -16.3175,0 -29.54542,-8.588 -29.54542,-19.1818 0,-10.5939 13.22792,-19.1818 29.54542,-19.1818 16.3175,0 29.5455,8.5879 29.5455,19.1818"
         id="path4042"
         style="stroke-width:12.33391476;stroke-miterlimit:4;stroke-dasharray:none" />
    </g>
    <path
       style="fill:#00ff00;stroke:#00be00;stroke-width:8;stroke-linecap:round;stroke-linejoin:round;stroke-miterlimit:4;stroke-opacity:1;stroke-dasharray:none"
       d="m 49.853553,1028.0907 0,20.5"
       id="path2985"
       inkscape:connector-curvature="0" />
  </g>
</svg>
